<?xml version="1.0" encoding="utf-8"?>
<!-- Generator: Adobe Illustrator 24.1.1, SVG Export Plug-In . SVG Version: 6.00 Build 0)  -->
<svg version="1.1" id="Layer_1" xmlns="http://www.w3.org/2000/svg" xmlns:xlink="http://www.w3.org/1999/xlink" x="0px" y="0px"
	 viewBox="0 0 1000 1000" style="enable-background:new 0 0 1000 1000;" xml:space="preserve">
<style type="text/css">
	.st0{fill:#9B3F4D;}
</style>
<g>
	<path class="st0" d="M254.98,587.17c8.82,3.35,17.06,6.48,25.28,9.61c-2.91,13.25-6.23,25.77-8.28,38.48
		c-2.55,15.83-4.3,31.8-5.93,47.77c-0.84,8.22-0.95,16.52-0.9,24.78c0.15,30.5,3.94,60.48,12.18,89.94
		c3.1,11.06,6.7,21.75,12.53,31.66c3.87,6.59,9.23,11.18,16.16,14.56c7.05,3.43,13.44,2.61,19.75-0.98
		c5.95-3.39,10.91-7.98,13.15-14.69c5.16-15.44,10.46-30.86,15.11-46.48c8.41-28.23,15.69-56.84,27.66-83.89
		c5.79-13.09,11.95-26.09,20.59-37.55c11.18-14.8,23.13-29.02,39.3-38.89c0.56-0.33,1.18-0.58,2.54-1.26
		c4.63,7.19,9.27,14.4,13.72,21.33c-7.88,8.8-16,16.87-22.89,25.86c-6.89,9-13.27,18.56-18.64,28.52
		c-14.45,26.87-23.69,55.82-32.87,84.79c-5.52,17.45-11.07,34.91-18.91,51.55c-7.38,15.67-17.42,28.64-33.33,36.24
		c-9.61,4.57-19.37,5.88-29.71,1.52c-15.44-6.47-26.73-17.07-35.45-31.33c-10.23-16.72-15.65-35-19.65-53.83
		c-3.72-17.47-6.76-35.05-7.34-52.95c-0.46-14.27-1.57-28.63-0.82-42.85c1.19-22.49,3.54-44.89,8.71-66.92
		c2.18-9.33,3.86-18.78,5.86-28.15C253.26,591.91,254.11,589.9,254.98,587.17"/>
	<path class="st0" d="M746.19,588.26c-8.82,3.36-17.05,6.47-25.27,9.61c2.9,13.25,6.22,25.76,8.28,38.48
		c2.56,15.83,4.31,31.81,5.93,47.77c0.84,8.2,0.94,16.52,0.91,24.78c-0.16,30.49-3.94,60.48-12.19,89.94
		c-3.1,11.05-6.69,21.75-12.52,31.66c-3.87,6.59-9.24,11.16-16.15,14.55c-7.06,3.45-13.45,2.62-19.76-0.96
		c-5.95-3.4-10.91-8-13.14-14.7c-5.17-15.44-10.46-30.86-15.12-46.48c-8.41-28.24-15.69-56.84-27.66-83.88
		c-5.79-13.1-11.94-26.09-20.58-37.56c-11.19-14.83-23.14-29.02-39.3-38.89c-0.55-0.33-1.17-0.57-2.55-1.26
		c-4.62,7.18-9.26,14.4-13.71,21.33c7.87,8.81,16,16.87,22.89,25.86c6.9,9,13.27,18.56,18.64,28.52
		c14.45,26.87,23.69,55.82,32.86,84.79c5.53,17.45,11.07,34.89,18.91,51.56c7.38,15.66,17.43,28.63,33.34,36.23
		c9.6,4.57,19.37,5.87,29.7,1.53c15.45-6.49,26.74-17.1,35.45-31.33c10.23-16.74,15.65-35.01,19.65-53.84
		c3.71-17.47,6.75-35.05,7.33-52.94c0.46-14.29,1.57-28.62,0.81-42.85c-1.18-22.48-3.54-44.92-8.71-66.93
		c-2.18-9.32-3.85-18.76-5.86-28.13C747.92,592.99,747.07,590.98,746.19,588.26"/>
	<path class="st0" d="M610.82,178.39c-5.25,4.81-10.29,9.87-15.79,14.38c-17.1,14.02-35.75,25.23-57.59,30.37
		c-22.9,5.39-45.16,2.77-67.32-4.38c-16.67-5.37-32.55-12.39-48.24-20.02c-18.69-9.08-37.57-17.67-57.75-23.03
		c-14.59-3.87-29.35-6.25-44.44-4.58c-11.04,1.23-21.14,5.85-30.62,11.24c-17.47,9.91-32.96,22.54-44.54,39.1
		c-11.56,16.55-18.28,35.17-20.41,55.37c-3.9,36.85,9.04,67.91,32.66,95.32c1.42,1.64,2.86,3.25,5.01,5.67
		c-2.39,0.19-3.83,0.4-5.27,0.4c-8.28,0.03-16.56-0.07-24.84,0.04c-2.96,0.03-4.93-0.98-6.7-3.46
		c-21.03-29.51-33.06-61.87-30.43-98.56c1.59-22.22,8.84-42.8,20.62-61.73c6.98-11.23,14.52-21.96,24.2-31.18
		c19.02-18.11,40.56-31.33,66.53-36.85c16.97-3.61,33.71-2.35,50.52,1.01c17.23,3.44,33.36,9.84,48.96,17.7
		c18.95,9.55,37.74,19.42,56.78,28.77c14.74,7.23,30.47,11.19,46.74,13.59c27.89,4.11,53.09-3.98,77.45-16.04
		c8.18-4.05,15.83-9.14,23.73-13.76C610.34,177.95,610.58,178.17,610.82,178.39"/>
	<path class="st0" d="M744.09,375.46c4.46-7.02,8.37-13.21,12.34-19.37c9.12-14.16,17-28.95,20.77-45.49
		c5.9-25.91,4.19-51.32-4.65-76.51c-7.05-20.09-17.81-37.56-33.6-51.66c-17.63-15.75-38.46-24.74-61.98-27.83
		c-25.68-3.37-49.65,1.45-72.52,13.26c-12.69,6.56-25.44,13.08-38.48,18.89c-11.9,5.3-24.57,8.25-37.7,8.41
		c-3.48,0.05-6.96-0.77-11.79-1.36c1.77-1.35,2.35-2.19,2.96-2.22c21.61-0.77,39.25-10.9,55.98-23.39
		c14.68-10.96,29.5-21.74,45.9-30.12c12.14-6.21,24.91-9.71,38.59-9.9c11.65-0.16,23.25,0.22,34.72,2.53
		c26.74,5.4,50.27,17.15,69.82,36.2c25.8,25.13,41.55,55.57,46.71,91.35c2.65,18.34,2.31,36.58-1.44,54.71
		c-0.9,4.35-2.19,8.69-3.86,12.8c-6.44,15.77-14.11,30.89-24.17,44.74c-2.98,4.1-6.22,6.43-11.66,6.05
		c-7.35-0.51-14.77-0.15-22.16-0.21C747.04,376.34,746.22,375.97,744.09,375.46"/>
	<rect x="133.02" y="414.78" class="st0" width="8.41" height="63.47"/>
	<path class="st0" d="M154.97,443.64c0-4.01,0-8.07-0.09-11.65h7.77c0.22,1.36,0.33,6.23,0.31,7.6c1.84-3.98,5.62-8.69,14.56-8.69
		c8.67,0,15.46,5.3,15.46,17.6v29.75h-7.98v-28.73c0-6.99-2.73-11.7-9.79-11.7c-8.72,0-12.24,6.64-12.24,15.94v24.49h-7.98V443.64z"
		/>
	<path class="st0" d="M207.34,478.25v-39.74h-7.45v-6.52h7.45v-5.54c0-8.5,3.26-16.09,13.47-16.09c1.69,0,3.99,0.24,5.12,0.61v6.77
		c-1.12-0.27-2.82-0.42-4.06-0.42c-4.77,0-6.55,2.87-6.55,9.64v5.03h9.26v6.52h-9.26v39.74H207.34z"/>
	<path class="st0" d="M231.74,411.28h7.98v9.97h-7.98V411.28z M231.74,431.99h7.98v46.26h-7.98V431.99z"/>
	<path class="st0" d="M252.74,443.64c0-4.01,0-8.07-0.09-11.65h7.77c0.21,1.36,0.33,6.23,0.31,7.6c1.84-3.98,5.62-8.69,14.56-8.69
		c8.67,0,15.46,5.3,15.46,17.6v29.75h-7.99v-28.73c0-6.99-2.73-11.7-9.79-11.7c-8.72,0-12.24,6.64-12.24,15.94v24.49h-7.98V443.64z"
		/>
	<path class="st0" d="M303.7,411.28h7.98v9.97h-7.98V411.28z M303.7,431.99h7.98v46.26h-7.98V431.99z"/>
	<path class="st0" d="M319.19,431.99h8v-13.65h7.98v13.65h10.21v6.52h-10.21v27.1c0,4.49,1.1,6.79,5.27,6.79
		c1.11,0,2.77-0.06,4.03-0.39v6.02c-1.97,0.73-4.71,0.86-6.91,0.86c-7.19,0-10.38-3.73-10.38-11.42v-28.96h-8V431.99z"/>
	<path class="st0" d="M358.53,431.99c7.47,22.15,11.58,34.42,12.81,39.12h0.09c1.5-5.23,4.79-15.82,12.35-39.12h8.07l-16.63,48.38
		c-4.71,13.53-8.19,16.96-17.65,16.96c-1.45,0-3.19-0.09-4.97-0.31v-6.94c1.18,0.15,2.51,0.23,3.82,0.23
		c5.86,0,8.09-2.58,10.81-10.29l-17.32-48.03H358.53z"/>
	<path class="st0" d="M422.97,414.78h22.67c17.84,0,29.91,12.16,29.91,31.09c0,18.77-11.76,32.38-30.19,32.38h-22.39V414.78z
		 M431.38,471.1h13.32c14.93,0,22.04-10.7,22.04-25.05c0-12.53-6.47-24.12-22.01-24.12h-13.34V471.1z"/>
	<path class="st0" d="M491.16,456.57c0.07,9.41,4.79,16.08,12.64,16.08c7.32,0,9.69-3.76,11.17-7.14h8.04
		c-1.81,5.92-6.77,13.82-19.45,13.82c-14.55,0-20.48-11.81-20.48-23.72c0-13.76,6.93-24.72,20.99-24.72
		c14.92,0,19.81,11.97,19.81,21.84c0,1.41,0,2.59-0.12,3.84H491.16z M515.78,450.94c-0.09-7.61-3.92-13.72-11.83-13.72
		c-8.13,0-11.71,5.66-12.52,13.72H515.78z"/>
	<path class="st0" d="M533.56,443.64c0-4.01,0-8.07-0.09-11.65h7.76c0.22,1.36,0.34,6.23,0.32,7.6c1.84-3.98,5.61-8.69,14.56-8.69
		c8.67,0,15.46,5.3,15.46,17.6v29.75h-7.98v-28.73c0-6.99-2.73-11.7-9.79-11.7c-8.73,0-12.24,6.64-12.24,15.94v24.49h-7.99V443.64z"
		/>
	<path class="st0" d="M578.04,431.99h8v-13.65h7.98v13.65h10.21v6.52h-10.21v27.1c0,4.49,1.09,6.79,5.28,6.79
		c1.11,0,2.77-0.06,4.03-0.39v6.02c-1.97,0.73-4.71,0.86-6.92,0.86c-7.19,0-10.38-3.73-10.38-11.42v-28.96h-8V431.99z"/>
	<path class="st0" d="M646.7,468.16c0,4.22,0.36,8.76,0.64,10.09h-7.64c-0.37-1.03-0.64-3.23-0.75-6.06
		c-1.62,3.08-5.31,7.14-14.28,7.14c-10.91,0-15.56-7.1-15.56-14.13c0-10.32,8.1-15.05,21.86-15.05h7.89v-3.94
		c0-4.07-1.31-9.06-9.97-9.06c-7.73,0-9.03,3.84-9.87,7.45h-7.73c0.62-6.38,4.55-13.74,17.86-13.71
		c11.3,0.03,17.56,4.63,17.56,15.15V468.16z M638.91,455.7h-7.48c-9.23,0-14.17,2.55-14.17,9.07c0,4.81,3.3,8.31,9,8.31
		c11.14,0,12.65-7.5,12.65-15.9V455.7z"/>
	<rect x="659.86" y="411.28" class="st0" width="7.98" height="66.97"/>
	<path class="st0" d="M755.05,460.25c-2.81,10.78-10.84,18.8-25.24,18.8c-18.98,0-28.55-14.4-28.55-32.34
		c0-17.24,9.58-32.83,28.86-32.83c14.97,0,23.09,8.53,24.96,19.13h-8.41c-2.28-6.9-6.85-12.12-16.88-12.12
		c-14,0-19.72,12.73-19.72,25.57c0,12.45,5.43,25.58,20.08,25.58c9.79,0,14.07-5.61,16.46-11.78H755.05z"/>
	<path class="st0" d="M799.29,468.16c0,4.22,0.37,8.76,0.64,10.09h-7.64c-0.36-1.03-0.64-3.23-0.75-6.06
		c-1.62,3.08-5.31,7.14-14.28,7.14c-10.9,0-15.56-7.1-15.56-14.13c0-10.32,8.11-15.05,21.86-15.05h7.89v-3.94
		c0-4.07-1.3-9.06-9.96-9.06c-7.73,0-9.03,3.84-9.88,7.45h-7.73c0.62-6.38,4.55-13.74,17.86-13.71c11.3,0.03,17.56,4.63,17.56,15.15
		V468.16z M791.49,455.7h-7.48c-9.22,0-14.16,2.55-14.16,9.07c0,4.81,3.29,8.31,9,8.31c11.14,0,12.64-7.5,12.64-15.9V455.7z"/>
	<path class="st0" d="M812.44,444.56c0-6.46-0.05-10.1-0.08-12.56h7.83c0.12,1.3,0.24,4.93,0.24,9.44
		c2.42-6.26,7.94-10.3,15.58-10.53v7.97c-9.49,0.28-15.58,5.24-15.58,16.93v22.46h-7.99V444.56z"/>
	<path class="st0" d="M847.96,456.57c0.06,9.41,4.79,16.08,12.64,16.08c7.31,0,9.68-3.76,11.17-7.14h8.04
		c-1.82,5.92-6.78,13.82-19.45,13.82c-14.54,0-20.47-11.81-20.47-23.72c0-13.76,6.93-24.72,20.98-24.72
		c14.92,0,19.81,11.97,19.81,21.84c0,1.41,0,2.59-0.12,3.84H847.96z M872.59,450.94c-0.09-7.61-3.92-13.72-11.82-13.72
		c-8.14,0-11.72,5.66-12.52,13.72H872.59z"/>
	<path class="st0" d="M36.24,532.74c0,7.18-4.03,13.59-12.26,13.59c-7.69,0-11.97-5.94-11.97-13.44c0-7.47,4.38-13.44,12.28-13.44
		C31.64,519.45,36.24,524.97,36.24,532.74 M15.63,532.77c0,5.65,2.89,10.6,8.5,10.6c6.06,0,8.48-5.01,8.48-10.58
		c0-5.63-2.73-10.39-8.46-10.39C18.23,522.4,15.63,527.2,15.63,532.77"/>
	<path class="st0" d="M52.59,534.44v11.51h-3.43v-26.13h10.21c5.36,0,8.23,2.92,8.23,7c0,3.39-1.95,5.45-4.45,6.14
		c2.13,0.56,3.98,2.15,3.98,6.69v1.12c0,1.8-0.08,4.08,0.35,5.18h-3.37c-0.48-1.13-0.45-3.17-0.45-5.62v-0.56
		c0-3.71-1.04-5.33-5.73-5.33H52.59z M52.59,531.53h5.68c3.99,0,5.74-1.51,5.74-4.44c0-2.78-1.81-4.35-5.36-4.35h-6.07V531.53z"/>
	<path class="st0" d="M80.94,519.82h9.33c7.34,0,12.3,5.01,12.3,12.81c0,7.73-4.84,13.32-12.42,13.32h-9.22V519.82z M84.41,543h5.48
		c6.14,0,9.07-4.4,9.07-10.3c0-5.16-2.66-9.93-9.06-9.93h-5.49V543z"/>
	<rect x="115.51" y="519.83" class="st0" width="3.46" height="26.12"/>
	<path class="st0" d="M133.57,545.95v-26.12h4.58c3.75,6.12,11.89,19.09,13.37,21.94h0.05c-0.26-3.35-0.24-7.47-0.24-11.73v-10.2
		h3.28v26.12h-4.31c-3.45-5.67-11.95-19.65-13.59-22.57h-0.05c0.19,2.97,0.19,7.4,0.19,12.11v10.46H133.57z"/>
	<path class="st0" d="M172.63,538.11l-2.8,7.84h-3.45l9.31-26.13h4.26l9.7,26.13h-3.69l-2.9-7.84H172.63z M182.16,535.15
		c-2.48-6.86-3.85-10.51-4.42-12.51h-0.03c-0.64,2.21-2.17,6.62-4.18,12.51H182.16z"/>
	<path class="st0" d="M221.57,538.53c-1.16,4.43-4.46,7.73-10.39,7.73c-7.81,0-11.75-5.92-11.75-13.31
		c0-7.09,3.94-13.51,11.88-13.51c6.16,0,9.5,3.51,10.27,7.88h-3.46c-0.94-2.84-2.82-4.99-6.95-4.99c-5.76,0-8.12,5.24-8.12,10.51
		c0,5.13,2.24,10.53,8.27,10.53c4.03,0,5.79-2.3,6.78-4.85H221.57z"/>
	<rect x="234.18" y="519.83" class="st0" width="3.46" height="26.12"/>
	<path class="st0" d="M258.56,538.32c0,5.9-2.32,8.01-6.69,8.01c-1.07,0-2.02-0.1-2.76-0.27v-2.89c0.5,0.1,1.59,0.18,2.42,0.18
		c3.15,0,3.57-2.33,3.57-4.89v-18.62h3.46V538.32z"/>
	<path class="st0" d="M275.98,538.11l-2.8,7.84h-3.45l9.3-26.13h4.26l9.71,26.13h-3.69l-2.9-7.84H275.98z M285.52,535.15
		c-2.49-6.86-3.86-10.51-4.42-12.51h-0.04c-0.64,2.21-2.16,6.62-4.17,12.51H285.52z"/>
	<path class="st0" d="M344.48,532.74c0,7.18-4.04,13.59-12.26,13.59c-7.69,0-11.98-5.94-11.98-13.44c0-7.47,4.38-13.44,12.29-13.44
		C339.88,519.45,344.48,524.97,344.48,532.74 M323.87,532.77c0,5.65,2.89,10.6,8.51,10.6c6.06,0,8.47-5.01,8.47-10.58
		c0-5.63-2.74-10.39-8.46-10.39C326.46,522.4,323.87,527.2,323.87,532.77"/>
	<path class="st0" d="M357.38,519.83h9.92c5.09,0,8.56,2.84,8.56,7.6c0,5.09-3.67,7.78-8.77,7.78h-6.22v10.74h-3.49V519.83z
		 M360.87,532.29h6.05c3.58,0,5.37-1.74,5.37-4.78c0-3.18-2.17-4.77-5.23-4.77h-6.18V532.29z"/>
	<path class="st0" d="M390.1,538.67c0.71,3.14,2.85,4.83,6.63,4.83c4.08,0,5.69-1.91,5.69-4.37c0-2.62-1.28-4.09-6.53-5.36
		c-6.15-1.49-8.28-3.6-8.28-7.26c0-3.88,2.86-7.05,8.68-7.05c6.22,0,8.78,3.6,9.13,7.03h-3.53c-0.47-2.32-1.92-4.23-5.73-4.23
		c-3.18,0-4.96,1.44-4.96,3.91c0,2.46,1.47,3.43,6.05,4.54c7.45,1.81,8.77,4.71,8.77,8.06c0,4.21-3.12,7.51-9.51,7.51
		c-6.57,0-9.4-3.58-9.93-7.6H390.1z M394.61,517.5l-4.94-4.93h3.47l3.17,3.13l3.35-3.13h3.43l-5.13,4.93H394.61z"/>
	<polygon class="st0" points="423.92,522.8 415.49,522.8 415.49,519.83 435.85,519.83 435.85,522.8 427.41,522.8 427.41,545.95 
		423.92,545.95 	"/>
	<polygon class="st0" points="463.46,533.73 450.48,533.73 450.48,542.97 464.74,542.97 464.3,545.95 447.08,545.95 447.08,519.82 
		464.09,519.82 464.09,522.8 450.48,522.8 450.48,530.77 463.46,530.77 	"/>
	<path class="st0" d="M493.99,519.82h9.33c7.34,0,12.31,5.01,12.31,12.81c0,7.73-4.84,13.32-12.42,13.32h-9.22V519.82z M497.45,543
		h5.48c6.15,0,9.07-4.4,9.07-10.3c0-5.16-2.66-9.93-9.05-9.93h-5.5V543z"/>
	<polygon class="st0" points="544.94,533.73 531.95,533.73 531.95,542.97 546.22,542.97 545.77,545.95 528.56,545.95 528.56,519.82 
		545.56,519.82 545.56,522.8 531.95,522.8 531.95,530.77 544.94,530.77 	"/>
	<path class="st0" d="M558.44,545.95v-26.12h4.58c3.74,6.12,11.9,19.09,13.35,21.94h0.05c-0.25-3.35-0.22-7.47-0.22-11.73v-10.2
		h3.28v26.12h-4.31c-3.45-5.67-11.95-19.65-13.59-22.57h-0.04c0.18,2.97,0.18,7.4,0.18,12.11v10.46H558.44z"/>
	<polygon class="st0" points="599.44,522.8 591.01,522.8 591.01,519.83 611.38,519.83 611.38,522.8 602.93,522.8 602.93,545.95 
		599.44,545.95 	"/>
	<path class="st0" d="M623.25,538.11l-2.81,7.84h-3.44l9.3-26.13h4.26l9.7,26.13h-3.69l-2.9-7.84H623.25z M632.78,535.15
		c-2.49-6.86-3.86-10.51-4.43-12.51h-0.04c-0.64,2.21-2.17,6.62-4.17,12.51H632.78z"/>
	<polygon class="st0" points="651.88,519.83 655.35,519.83 655.35,542.97 668.97,542.97 668.49,545.95 651.88,545.95 	"/>
	<path class="st0" d="M680.21,545.95v-26.12h4.59c3.75,6.12,11.89,19.09,13.36,21.94h0.05c-0.25-3.35-0.23-7.47-0.23-11.73v-10.2
		h3.28v26.12h-4.31c-3.45-5.67-11.95-19.65-13.58-22.57h-0.05c0.19,2.97,0.19,7.4,0.19,12.11v10.46H680.21z"/>
	<polygon class="st0" points="732.25,533.73 719.26,533.73 719.26,542.97 733.52,542.97 733.08,545.95 715.87,545.95 715.87,519.82 
		732.87,519.82 732.87,522.8 719.26,522.8 719.26,530.77 732.25,530.77 	"/>
	<path class="st0" d="M785.1,534.82c0-4.86,0.05-9.79,0.16-12.53h-0.13c-1.12,4.24-5.35,15.44-8.34,23.67h-3.11
		c-2.26-6.69-6.63-19.25-7.81-23.71h-0.11c0.2,3.01,0.28,8.82,0.28,13.3v10.42h-3.27v-26.12h5.17c2.96,8.1,6.59,18.57,7.49,21.89
		h0.07c0.61-2.51,4.9-13.98,7.97-21.89h5.02v26.12h-3.38V534.82z"/>
	<polygon class="st0" points="819.47,533.73 806.48,533.73 806.48,542.97 820.74,542.97 820.3,545.95 803.08,545.95 803.08,519.82 
		820.09,519.82 820.09,522.8 806.48,522.8 806.48,530.77 819.47,530.77 	"/>
	<path class="st0" d="M832.96,519.82h9.34c7.34,0,12.3,5.01,12.3,12.81c0,7.73-4.84,13.32-12.42,13.32h-9.22V519.82z M836.42,543
		h5.48c6.14,0,9.07-4.4,9.07-10.3c0-5.16-2.66-9.93-9.06-9.93h-5.49V543z"/>
	<rect x="867.52" y="519.83" class="st0" width="3.46" height="26.12"/>
	<path class="st0" d="M906.03,538.53c-1.16,4.43-4.47,7.73-10.4,7.73c-7.81,0-11.74-5.92-11.74-13.31c0-7.09,3.94-13.51,11.88-13.51
		c6.16,0,9.49,3.51,10.27,7.88h-3.47c-0.93-2.84-2.81-4.99-6.94-4.99c-5.75,0-8.11,5.24-8.11,10.51c0,5.13,2.24,10.53,8.26,10.53
		c4.03,0,5.79-2.3,6.78-4.85H906.03z"/>
	<rect x="918.63" y="519.83" class="st0" width="3.47" height="26.12"/>
	<path class="st0" d="M936.69,545.95v-26.12h4.58c3.75,6.12,11.9,19.09,13.36,21.94h0.05c-0.25-3.35-0.23-7.47-0.23-11.73v-10.2
		h3.28v26.12h-4.31c-3.44-5.67-11.95-19.65-13.58-22.57h-0.05c0.19,2.97,0.19,7.4,0.19,12.11v10.46H936.69z"/>
	<polygon class="st0" points="988.73,533.73 975.74,533.73 975.74,542.97 990,542.97 989.55,545.95 972.34,545.95 972.34,519.82 
		989.35,519.82 989.35,522.8 975.74,522.8 975.74,530.77 988.73,530.77 	"/>
</g>
</svg>
